<svg height="512pt" viewBox="0 0 512 512" width="512pt" xmlns="http://www.w3.org/2000/svg"><path d="m509.050781 401.328125c-1.859375-1.859375-4.441406-2.929687-7.070312-2.929687-2.628907 0-5.210938 1.070312-7.070313 2.929687-1.859375 1.863281-2.929687 4.441406-2.929687 7.070313 0 2.632812 1.070312 5.210937 2.929687 7.070312s4.441406 2.929688 7.070313 2.929688c2.628906 0 5.210937-1.070313 7.070312-2.929688s2.929688-4.4375 2.929688-7.070312c0-2.628907-1.070313-5.207032-2.929688-7.070313zm0 0"/><path d="m370.839844 263.117188.03125-23.304688c.058594-39.167969-15.164063-75.988281-42.859375-103.683594l-24.074219-24.074218c-3.90625-3.90625-10.238281-3.90625-14.144531 0-3.902344 3.902343-3.902344 10.234374 0 14.140624l24.074219 24.074219c23.910156 23.910157 37.054687 55.699219 37.003906 89.515625l-.039063 27.453125c-.003906 2.65625 1.050781 5.207031 2.929688 7.085938l112.867187 112.867187c1.953125 1.953125 4.511719 2.929688 7.070313 2.929688 2.558593 0 5.121093-.976563 7.070312-2.929688 3.90625-3.90625 3.90625-10.238281 0-14.140625zm0 0"/><path d="m260.589844 367.496094c-1.875-1.875-4.417969-2.929688-7.070313-2.929688-.003906 0-.011719 0-.015625 0l-42.476562.0625c-.0625 0-.121094 0-.179688 0-25.148437 0-49.476562-7.402344-70.363281-21.410156l-62.542969-41.9375c-4.144531-2.785156-6.9375-7.019531-7.851562-11.929688-.917969-4.910156.152344-9.867187 3.019531-13.957031 5.550781-7.925781 16.382813-10.207031 24.660156-5.191406l27.03125 16.390625c6.195313 3.753906 13.933594 2.34375 18.402344-3.355469 4.472656-5.699219 3.996094-13.550781-1.125-18.671875l-116.859375-116.863281c-3.363281-3.363281-5.21875-7.839844-5.21875-12.601563 0-4.761718 1.855469-9.238281 5.222656-12.605468 3.363282-3.363282 7.839844-5.21875 12.601563-5.21875 4.136719 0 8.058593 1.402344 11.222656 3.980468l92.382813 92.242188c3.902343 3.90625 10.234374 3.90625 14.140624 0s3.90625-10.238281 0-14.144531l-115.832031-115.691407c-6.949219-6.949218-6.949219-18.253906 0-25.203124 6.949219-6.953126 18.257813-6.949219 25.207031 0l115.765626 115.761718c3.902343 3.90625 10.234374 3.90625 14.140624 0s3.90625-10.238281 0-14.144531l-92.3125-92.308594c-2.574218-3.167969-3.980468-7.085937-3.980468-11.226562 0-4.761719 1.855468-9.234375 5.222656-12.601563 6.949219-6.949218 18.253906-6.949218 25.203125 0l67.515625 67.652344c.316406.316406 23.488281 23.347656 23.488281 23.347656 3.90625 3.90625 10.238281 3.90625 14.144531 0 3.902344-3.902344 3.902344-10.234375 0-14.140625l-71.753906-71.753906c-2.578125-3.164063-3.980468-7.085937-3.980468-11.226563 0-4.757812 1.851562-9.234374 5.21875-12.601562 3.367187-3.367188 7.84375-5.21875 12.605468-5.21875 4.757813 0 9.234375 1.851562 12.601563 5.21875l44.40625 44.40625c3.90625 3.90625 10.238281 3.90625 14.140625 0 3.90625-3.902344 3.90625-10.234375 0-14.140625l-44.402344-44.40625c-7.152344-7.144531-16.648438-11.078125-26.75-11.078125-10.105469 0-19.605469 3.933594-26.746094 11.078125-4.511718 4.507813-7.738281 9.957031-9.507812 15.902344-14.835938-11.851563-36.59375-10.917969-50.328125 2.820312-4.527344 4.523438-7.660157 9.925781-9.40625 15.660157l-1.144531-1.144532c-14.746094-14.746094-38.742188-14.746094-53.488282 0-7.144531 7.144532-11.078125 16.640625-11.078125 26.746094 0 10.101562 3.933594 19.597656 11.078125 26.742188l1.121094 1.121093c-5.84375 1.789063-11.199219 4.984375-15.640625 9.429688-7.144531 7.144531-11.078125 16.644531-11.078125 26.746093 0 10.101563 3.933594 19.601563 11.078125 26.746094l86.972656 86.96875c-15.195312-4-31.90625 1.65625-41.324219 15.105469-5.972656 8.53125-8.210937 18.863281-6.296874 29.101563 1.910156 10.238281 7.726562 19.066406 16.375 24.867187l62.542968 41.9375c24.25 16.265625 52.515625 24.796875 81.707032 24.796875l38.328124-.054688 124.5 124.5c1.953126 1.953126 4.511719 2.929688 7.070313 2.929688s5.117187-.976562 7.070313-2.929688c3.90625-3.90625 3.90625-10.234374 0-14.140624zm0 0"/><path d="m272.453125 225.320312c16.539063 0 30-13.460937 30-30 0-16.542968-13.460937-30-30-30-16.542969 0-30 13.457032-30 30 0 16.539063 13.457031 30 30 30zm0-40c5.511719 0 10 4.484376 10 10 0 5.511719-4.488281 10-10 10-5.515625 0-10-4.488281-10-10 0-5.515624 4.484375-10 10-10zm0 0"/><path d="m215.476562 334.640625c16.542969 0 30-13.460937 30-30 0-16.542969-13.457031-30-30-30-16.542968 0-30 13.457031-30 30 0 16.539063 13.457032 30 30 30zm0-40c5.515626 0 10 4.484375 10 10 0 5.511719-4.484374 10-10 10-5.511718 0-10-4.488281-10-10 0-5.515625 4.488282-10 10-10zm0 0"/><path d="m370.785156 332.019531c-16.542968 0-30 13.460938-30 30 0 16.542969 13.457032 30 30 30 16.542969 0 30-13.457031 30-30 0-16.539062-13.457031-30-30-30zm0 40c-5.511718 0-10-4.484375-10-10 0-5.511719 4.488282-10 10-10 5.515625 0 10 4.488281 10 10 0 5.515625-4.484375 10-10 10zm0 0"/><path d="m453.683594 451.96875c-16.542969 0-30 13.460938-30 30 0 16.542969 13.457031 30 30 30 16.542968 0 30-13.457031 30-30 0-16.539062-13.457032-30-30-30zm0 40c-5.511719 0-10-4.484375-10-10 0-5.511719 4.488281-10 10-10 5.515625 0 10 4.488281 10 10 0 5.515625-4.484375 10-10 10zm0 0"/><path d="m206.730469 230.171875c1.859375-1.871094 2.929687-4.441406 2.929687-7.070313 0-2.640624-1.070312-5.210937-2.929687-7.082031-1.859375-1.859375-4.441407-2.917969-7.070313-2.917969-2.640625 0-5.210937 1.058594-7.070312 2.917969-1.871094 1.859375-2.929688 4.441407-2.929688 7.082031 0 2.628907 1.058594 5.207032 2.929688 7.070313 1.859375 1.859375 4.429687 2.917969 7.070312 2.917969 2.628906 0 5.210938-1.058594 7.070313-2.917969zm0 0"/><path d="m316.730469 282.078125c1.859375-1.859375 2.929687-4.4375 2.929687-7.066406 0-2.640625-1.070312-5.210938-2.929687-7.070313-1.859375-1.863281-4.441407-2.929687-7.070313-2.929687-2.640625 0-5.210937 1.066406-7.070312 2.929687-1.871094 1.859375-2.929688 4.429688-2.929688 7.070313 0 2.628906 1.058594 5.207031 2.929688 7.066406 1.859375 1.863281 4.429687 2.933594 7.070312 2.933594 2.628906 0 5.210938-1.070313 7.070313-2.933594zm0 0"/><path d="m288.921875 341.199219c-1.863281 1.859375-2.933594 4.441406-2.933594 7.070312 0 2.640625 1.070313 5.210938 2.933594 7.070313 1.859375 1.859375 4.4375 2.929687 7.066406 2.929687 2.632813 0 5.210938-1.070312 7.070313-2.929687 1.863281-1.859375 2.929687-4.441406 2.929687-7.070313 0-2.628906-1.066406-5.210937-2.929687-7.070312-1.859375-1.859375-4.4375-2.929688-7.070313-2.929688-2.628906 0-5.207031 1.070313-7.066406 2.929688zm0 0"/><path d="m387.621094 424c-2.632813 0-5.210938 1.070312-7.070313 2.929688-1.859375 1.859374-2.929687 4.441406-2.929687 7.070312s1.070312 5.210938 2.929687 7.070312c1.859375 1.859376 4.4375 2.929688 7.070313 2.929688 2.628906 0 5.207031-1.070312 7.070312-2.929688 1.859375-1.859374 2.929688-4.441406 2.929688-7.070312s-1.070313-5.210938-2.929688-7.070312c-1.863281-1.859376-4.441406-2.929688-7.070312-2.929688zm0 0"/><path d="m268.578125 100.839844c2.640625 0 5.210937-1.070313 7.070313-2.929688 1.863281-1.859375 2.929687-4.441406 2.929687-7.070312s-1.066406-5.210938-2.929687-7.070313c-1.859376-1.859375-4.4375-2.929687-7.070313-2.929687-2.628906 0-5.207031 1.070312-7.066406 2.929687-1.863281 1.859375-2.933594 4.441407-2.933594 7.070313s1.070313 5.210937 2.933594 7.070312c1.859375 1.859375 4.4375 2.929688 7.066406 2.929688zm0 0"/></svg>