<svg id="Capa_1" enable-background="new 0 0 512 512" height="512" viewBox="0 0 512 512" width="512" xmlns="http://www.w3.org/2000/svg"><g><path d="m236 412h40c5.523 0 10-4.478 10-10v-30h30c5.523 0 10-4.478 10-10v-40c0-5.522-4.477-10-10-10h-30v-30c0-5.522-4.477-10-10-10h-40c-5.523 0-10 4.478-10 10v30h-30c-5.523 0-10 4.478-10 10v40c0 5.522 4.477 10 10 10h30v30c0 5.522 4.477 10 10 10zm-30-60v-20h30c5.523 0 10-4.478 10-10v-30h20v30c0 5.522 4.477 10 10 10h30v20h-30c-5.523 0-10 4.478-10 10v30h-20v-30c0-5.522-4.477-10-10-10z"/><circle cx="369" cy="455" r="10"/><path d="m391.366 427.926c4.834 2.666 10.919.91 13.586-3.926 13.77-24.964 21.048-53.318 21.048-82 0-83.932-42.031-129.115-82.678-172.811-39.764-42.746-77.322-83.121-77.322-159.189 0-5.522-4.477-10-10-10s-10 4.478-10 10c0 76.068-37.558 116.443-77.322 159.189-40.647 43.696-82.678 88.879-82.678 172.811 0 93.738 76.262 170 170 170 28.68 0 57.035-7.278 81.999-21.047 4.836-2.668 6.594-8.75 3.927-13.587-2.667-4.835-8.751-6.59-13.586-3.927-22.015 12.143-47.029 18.561-72.34 18.561-82.71 0-150-67.29-150-150 0-76.068 37.558-116.443 77.322-159.189 28.565-30.707 57.814-62.15 72.678-107.26 14.864 45.109 44.113 76.553 72.678 107.26 39.764 42.746 77.322 83.121 77.322 159.189 0 25.313-6.418 50.327-18.561 72.34-2.667 4.836-.909 10.919 3.927 13.586z"/></g></svg>