<svg id="Capa_1" enable-background="new 0 0 512 512" height="512" viewBox="0 0 512 512" width="512" xmlns="http://www.w3.org/2000/svg"><g><path d="m154.274 75h77.451c6.284.17 11.162-6.6 9.012-12.504l-7.982-23.949c-1.704-5.112-6.47-8.547-11.858-8.547h-55.793c-5.389 0-10.154 3.435-11.858 8.547l-7.98 23.944c-2.154 5.91 2.722 12.677 9.008 12.509zm12.631-30h52.189l4.999 15h-62.188z"/><path d="m90.5 102.5v201c0 6.893 5.607 12.5 12.5 12.5h180c6.893 0 12.5-5.607 12.5-12.5v-201c0-6.893-5.607-12.5-12.5-12.5h-180c-6.893 0-12.5 5.607-12.5 12.5zm15 2.5h175v166h-19.697c-4.143 0-7.5 3.358-7.5 7.5s3.357 7.5 7.5 7.5h19.697v15h-175v-15h120.303c4.143 0 7.5-3.358 7.5-7.5s-3.357-7.5-7.5-7.5h-120.303z"/><path d="m220.552 156.779c-4.415-6.325-9.22-12.285-13.529-16.782-6-6.261-10.062-8.815-14.022-8.815-3.235 0-6.819 1.502-13.796 8.834-4.311 4.53-9.112 10.475-13.521 16.74-6.821 9.69-18.264 28.095-18.264 42.481 0 25.133 20.447 45.581 45.581 45.581s45.581-20.448 45.581-45.581c-.001-14.47-11.297-32.812-18.03-42.458zm-27.552 73.039c-16.862 0-30.581-13.719-30.581-30.581 0-14.792 22.01-44.319 30.681-51.949 8.601 7.403 30.481 36.724 30.481 51.949 0 16.863-13.719 30.581-30.581 30.581z"/><path d="m439 215h-62c-6.893 0-12.5 5.607-12.5 12.5v46c0 6.893 5.607 12.5 12.5 12.5h8.5v17.5c0 6.893 5.607 12.5 12.5 12.5h2.5v116c0 8.271-6.729 15-15 15s-15-6.729-15-15v-36c0-16.542-13.458-30-30-30s-30 13.458-30 30v78.5c0 12.407-10.094 22.5-22.5 22.5h-65c-12.406 0-22.5-10.093-22.5-22.5v-33.5h2.5c6.893 0 12.5-5.607 12.5-12.5v-17.5h39c6.893 0 12.5-5.607 12.5-12.5v-20c0-6.413-4.856-11.707-11.082-12.414l3.149-11.02c1.525-5.338 6.468-9.066 12.02-9.066h21.913c17.921 0 32.5-14.58 32.5-32.5v-221c0-17.92-14.579-32.5-32.5-32.5h-13.085c-5.389 0-10.154-3.435-11.858-8.547l-10.883-32.65c-3.75-11.246-14.235-18.803-26.089-18.803h-76.17c-11.854 0-22.339 7.557-26.089 18.804l-10.883 32.649c-1.704 5.112-6.47 8.547-11.858 8.547h-13.085c-17.921 0-32.5 14.58-32.5 32.5v46.768c0 4.142 3.357 7.5 7.5 7.5s7.5-3.358 7.5-7.5v-46.768c0-9.649 7.851-17.5 17.5-17.5h13.085c11.854 0 22.339-7.557 26.089-18.804l10.883-32.649c1.704-5.112 6.47-8.547 11.858-8.547h76.17c5.389 0 10.154 3.435 11.858 8.547l10.883 32.65c3.75 11.246 14.235 18.803 26.089 18.803h13.085c9.649 0 17.5 7.851 17.5 17.5v221c0 9.649-7.851 17.5-17.5 17.5h-21.914c-12.213 0-23.087 8.202-26.441 19.945l-4.302 15.055h-94.686l-4.302-15.055c-3.354-11.743-14.227-19.945-26.441-19.945h-21.914c-9.649 0-17.5-7.851-17.5-17.5v-139.232c0-4.142-3.357-7.5-7.5-7.5s-7.5 3.358-7.5 7.5v139.232c0 17.92 14.579 32.5 32.5 32.5h21.914c5.552 0 10.494 3.728 12.02 9.066l3.149 11.02c-6.227.707-11.083 6.001-11.083 12.414v20c0 6.893 5.607 12.5 12.5 12.5h39v17.5c0 6.893 5.607 12.5 12.5 12.5h2.5v33.5c0 20.678 16.822 37.5 37.5 37.5h65c20.678 0 37.5-16.822 37.5-37.5v-78.5c0-8.271 6.729-15 15-15s15 6.729 15 15v36c0 16.542 13.458 30 30 30s30-13.458 30-30v-116h2.5c6.893 0 12.5-5.607 12.5-12.5v-17.5h8.5c6.893 0 12.5-5.607 12.5-12.5v-46c0-6.893-5.607-12.5-12.5-12.5zm-305 166h118v15h-118zm66.5 30v15h-15v-15zm215-110h-15v-15h15zm21-30h-57v-41h57z"/></g></svg>