<?xml version="1.0" encoding="iso-8859-1"?>
<!-- Generator: Adobe Illustrator 19.0.0, SVG Export Plug-In . SVG Version: 6.00 Build 0)  -->
<svg version="1.1" id="Capa_1" xmlns="http://www.w3.org/2000/svg" xmlns:xlink="http://www.w3.org/1999/xlink" x="0px" y="0px"
	 viewBox="0 0 512 512" style="enable-background:new 0 0 512 512;" xml:space="preserve">
<g>
	<g>
		<path d="M441.183,228.898c-5.814-5.814-13.285-10.804-22.353-14.945c9.073-4.141,16.549-9.135,22.365-14.951
			c16.284-16.283,26.373-36.928,28.41-58.131c2.105-21.924-4.571-41.833-18.799-56.062c-11.999-12-28.532-18.702-46.561-19.139
			c-0.438-18.027-7.142-34.563-19.139-46.561c-28.834-28.833-80.061-24.524-114.193,9.609c-5.813,5.813-10.804,13.286-14.944,22.353
			c-4.142-9.073-9.135-16.549-14.951-22.366c-34.133-34.133-85.36-38.443-114.193-9.609c-11.999,11.997-18.701,28.534-19.139,46.561
			c-18.027,0.438-34.563,7.142-46.561,19.139c-28.834,28.835-24.523,80.061,9.608,114.193c5.814,5.814,13.286,10.804,22.353,14.945
			c-9.073,4.141-16.549,9.135-22.365,14.951c-34.132,34.132-38.443,85.36-9.609,114.193c11.999,11.998,28.532,18.701,46.561,19.138
			c0.438,18.027,7.142,34.563,19.138,46.561c12.83,12.83,30.087,19.097,48.304,19.095c22.726-0.001,46.944-9.759,65.889-28.705
			c3.427-3.427,6.562-7.448,9.411-12.016C267.302,458.64,331.64,512,408.213,512c5.524,0,10.001-4.478,10.001-10.001
			s-4.478-10.001-10.001-10.001c-58.837,0-109.438-35.938-131.006-87.015c17.847,15.131,39.305,22.904,59.582,22.904
			c18.214,0,35.475-6.268,48.303-19.095c11.997-11.999,18.7-28.534,19.139-46.561c18.026-0.438,34.562-7.142,46.561-19.139
			c14.229-14.23,20.906-34.139,18.799-56.063C467.555,265.826,457.466,245.18,441.183,228.898z M436.648,328.947
			c-10.325,10.325-25.137,14.889-41.705,12.844c-3.061-0.377-6.119,0.676-8.296,2.854c-2.177,2.178-3.23,5.239-2.854,8.296
			c2.043,16.568-2.518,31.38-12.844,41.706c-21.034,21.034-59.571,16.724-85.905-9.609c-8.624-8.624-15.042-23.092-19.092-42.986
			v-39.587c0-5.524-4.478-10.001-10.001-10.001c-5.524,0-10.001,4.478-10.001,10.001v39.586
			c-4.05,19.888-10.467,34.352-19.089,42.973c-26.332,26.332-64.871,30.644-85.905,9.608
			c-10.325-10.325-14.887-25.136-12.844-41.705c0.377-3.057-0.676-6.118-2.854-8.296c-2.178-2.178-5.242-3.229-8.295-2.854
			c-16.572,2.041-31.381-2.518-41.705-12.844c-21.036-21.035-16.725-59.571,9.608-85.905c8.624-8.624,23.091-15.042,42.984-19.092
			h70.093c5.524,0,10.001-4.478,10.001-10.001c0-5.524-4.478-10.001-10.001-10.001h-70.088
			c-19.89-4.049-34.353-10.467-42.975-19.089c-26.333-26.334-30.644-64.871-9.608-85.906c10.326-10.326,25.14-14.887,41.705-12.844
			c3.063,0.376,6.119-0.676,8.296-2.854c2.178-2.178,3.231-5.239,2.854-8.296c-2.042-16.569,2.518-31.381,12.845-41.706
			c21.036-21.036,59.572-16.723,85.905,9.609c8.624,8.624,15.042,23.092,19.092,42.986v59.11c0,5.524,4.478,10.001,10.001,10.001
			c5.524,0,10.001-4.478,10.001-10.001V85.835c4.051-19.888,10.467-34.352,19.089-42.973c26.334-26.333,64.87-30.644,85.906-9.609
			c10.325,10.325,14.887,25.136,12.844,41.706c-0.377,3.057,0.676,6.118,2.854,8.296c2.178,2.179,5.244,3.231,8.296,2.854
			c16.566-2.046,31.379,2.518,41.705,12.844c9.928,9.928,14.557,24.136,13.033,40.006c-1.593,16.59-9.634,32.891-22.642,45.899
			c-8.623,8.623-23.09,15.041-42.984,19.091H324.96c-5.524,0-10.001,4.478-10.001,10.001s4.478,10.001,10.001,10.001h59.109
			c19.889,4.05,34.351,10.467,42.973,19.089c13.008,13.007,21.049,29.308,22.642,45.899
			C451.205,304.811,446.577,319.018,436.648,328.947z"/>
	</g>
</g>
<g>
	<g>
		<path d="M255.95,261.959c-5.524,0-10.001,4.478-10.001,10.001v0.083c0,5.524,4.478,9.959,10.001,9.959
			c5.524,0,10.001-4.519,10.001-10.042S261.474,261.959,255.95,261.959z"/>
	</g>
</g>
<g>
</g>
<g>
</g>
<g>
</g>
<g>
</g>
<g>
</g>
<g>
</g>
<g>
</g>
<g>
</g>
<g>
</g>
<g>
</g>
<g>
</g>
<g>
</g>
<g>
</g>
<g>
</g>
<g>
</g>
</svg>
