<?xml version="1.0" encoding="iso-8859-1"?>
<!-- Generator: Adobe Illustrator 19.0.0, SVG Export Plug-In . SVG Version: 6.00 Build 0)  -->
<svg version="1.1" id="Layer_1" xmlns="http://www.w3.org/2000/svg" xmlns:xlink="http://www.w3.org/1999/xlink" x="0px" y="0px"
	 viewBox="0 0 511.999 511.999" style="enable-background:new 0 0 511.999 511.999;" xml:space="preserve">
<g>
	<g>
		<path d="M507.916,201.952c-72.953-54.681-159.833-83.583-251.246-83.583c-46.409,0-92.01,7.536-135.535,22.4
			C79.063,155.138,39.67,176.078,4.049,203.006c-3.798,2.872-5.105,7.99-3.145,12.331l77.745,172.289
			c1.114,2.468,3.164,4.392,5.697,5.347c1.162,0.439,2.381,0.657,3.599,0.657c1.439,0,2.876-0.305,4.209-0.911
			c51.818-23.489,107.168-35.398,164.515-35.398c56.777,0,111.634,11.69,163.048,34.746c5.131,2.299,11.156,0.014,13.47-5.111
			l77.908-172.648C513.061,209.953,511.739,204.818,507.916,201.952z M418.73,369.404c-51.341-21.557-105.811-32.48-162.06-32.48
			c-56.835,0-111.812,11.133-163.58,33.112L22.879,214.443c68.308-49.536,148.965-75.676,233.791-75.675
			c84.234,0,164.423,25.796,232.435,74.679L418.73,369.404z"/>
	</g>
</g>
<g>
	<g>
		<path d="M461.951,213.046c-5.135-2.317-11.175-0.034-13.492,5.101l-3.891,8.623c-2.316,5.134-0.033,11.175,5.102,13.491
			c1.362,0.615,2.786,0.906,4.189,0.906c3.886,0,7.599-2.234,9.304-6.006l3.891-8.623
			C469.369,221.403,467.086,215.363,461.951,213.046z"/>
	</g>
</g>
<g>
	<g>
		<path d="M442.62,255.882c-5.136-2.317-11.175-0.033-13.492,5.101l-32.497,72.016c-2.316,5.134-0.033,11.175,5.102,13.491
			c1.362,0.615,2.786,0.906,4.189,0.906c3.886,0,7.599-2.234,9.304-6.006l32.497-72.016
			C450.038,264.239,447.754,258.198,442.62,255.882z"/>
	</g>
</g>
<g>
	<g>
		<path d="M326.883,203.25h-35.983v-35.983c0-5.633-4.567-10.199-10.199-10.199h-49.404c-5.633,0-10.199,4.566-10.199,10.199v35.983
			h-35.983c-5.633,0-10.199,4.566-10.199,10.199v49.404c0,5.633,4.566,10.199,10.199,10.199h35.983v35.983
			c0,5.633,4.566,10.199,10.199,10.199h49.404c5.633,0,10.199-4.566,10.199-10.199v-35.983h35.983
			c5.632,0,10.199-4.566,10.199-10.199V213.45C337.082,207.817,332.515,203.25,326.883,203.25z M316.684,252.654h-35.983
			c-5.632,0-10.199,4.566-10.199,10.199v35.983h-29.005v-35.983c0-5.633-4.566-10.199-10.199-10.199h-35.983v-29.005h35.983
			c5.633,0,10.199-4.566,10.199-10.199v-35.983h29.005v35.983c0,5.633,4.567,10.199,10.199,10.199h35.983V252.654z"/>
	</g>
</g>
<g>
</g>
<g>
</g>
<g>
</g>
<g>
</g>
<g>
</g>
<g>
</g>
<g>
</g>
<g>
</g>
<g>
</g>
<g>
</g>
<g>
</g>
<g>
</g>
<g>
</g>
<g>
</g>
<g>
</g>
</svg>
