<?xml version="1.0" encoding="iso-8859-1"?>
<!-- Generator: Adobe Illustrator 19.0.0, SVG Export Plug-In . SVG Version: 6.00 Build 0)  -->
<svg version="1.1" id="Capa_1" xmlns="http://www.w3.org/2000/svg" xmlns:xlink="http://www.w3.org/1999/xlink" x="0px" y="0px"
	 viewBox="0 0 512 512" style="enable-background:new 0 0 512 512;" xml:space="preserve">
<g>
	<g>
		<path d="M444.969,273.535c-18.952-11.556-38.844-21.28-59.403-29.134c9.724-12.767,15.508-28.686,15.508-45.938
			c0-12.62-3.161-25.126-9.14-36.163c-1.73-3.2-4.745-5.554-8.26-6.458c-0.48-0.124-0.968-0.214-1.457-0.281V108.85
			c0-51.272-41.712-92.984-92.983-92.984c-8.868,0-17.633,1.258-26.119,3.745C248.352,6.932,229.709,0,210.138,0
			c-44.908,0-81.442,36.535-81.442,81.442v74.324c-0.12,0.027-0.242,0.042-0.361,0.073c-3.522,0.905-6.536,3.259-8.267,6.457
			c-5.98,11.042-9.142,23.549-9.142,36.167c0,17.273,5.798,33.208,15.543,45.983c-20.573,7.867-40.476,17.608-59.438,29.184
			c-3.415,2.083-5.371,6.001-4.983,9.987c0.391,3.979,3.066,7.444,6.818,8.828c29.598,10.915,57.027,26.046,81.135,44.484v10.821
			h-17.357c-12.407,0-22.5,10.093-22.5,22.5V494.5c0,9.649,7.851,17.5,17.5,17.5h256.715c9.649,0,17.5-7.851,17.5-17.5V469
			c0-4.142-3.358-7.5-7.5-7.5c-4.142,0-7.5,3.358-7.5,7.5v25.5c0,1.355-1.145,2.5-2.5,2.5h-94.156
			c0.213-1.552,0.321-3.126,0.321-4.721c0-6.519-1.817-12.621-4.971-17.828l3.079-11.865l65.635-41.325
			c4.482-2.823,7.735-8.715,7.735-14.011v-44.5h17.357c4.136,0,7.5,3.364,7.5,7.5V428c0,4.142,3.358,7.5,7.5,7.5
			c4.142,0,7.5-3.358,7.5-7.5v-57.75c0-12.407-10.093-22.5-22.5-22.5H362v-13.162c4.891-3.594,9.909-7.05,15.049-10.348
			c3.487-2.237,4.5-6.876,2.264-10.363c-2.236-3.486-6.876-4.5-10.363-2.263c-15.163,9.727-29.334,20.753-42.271,32.767
			c-0.424-4.368-3.584-7.781-7.751-8.497v-12.861l37.075-36.147c4.887-4.763,8.715-13.845,8.715-20.676v-2.928
			c3.408-2.093,6.639-4.447,9.665-7.034c18.832,6.809,37.107,15.249,54.605,25.274c-8.573,3.238-17.022,6.838-25.219,10.748
			c-3.739,1.783-5.324,6.26-3.541,9.998c1.783,3.739,6.258,5.325,9.998,3.541c10.558-5.036,21.558-9.534,32.691-13.37
			c3.83-1.318,6.587-4.771,7.022-8.798C450.377,279.606,448.425,275.644,444.969,273.535z M125.927,198.463
			c-0.001-9.459,2.208-18.834,6.405-27.243c4.654,2.833,9.673,5.264,14.95,7.295V198.5h-7.168c-4.142,0-7.5,3.358-7.5,7.5
			c0,4.142,3.358,7.5,7.5,7.5h7.168v31.285C134.221,233.585,125.927,216.977,125.927,198.463z M82.785,281.73
			c17.58-10.103,35.947-18.603,54.878-25.454c3.013,2.571,6.228,4.912,9.619,6.995v2.928c0,6.831,3.828,15.913,8.715,20.676
			l37.075,36.146v12.863c-4.482,0.771-7.799,4.664-7.799,9.505v2.096C156.561,319.86,121.582,297.291,82.785,281.73z M221.799,497
			h-94.156c-1.354,0-2.499-1.145-2.499-2.5V370.25c0-4.136,3.364-7.5,7.5-7.5H150v44.5c0,5.296,3.253,11.188,7.735,14.011
			l11.275,7.098c3.504,2.207,8.136,1.153,10.343-2.352c2.207-3.505,1.154-8.136-2.352-10.343l-11.209-7.057
			c-0.304-0.275-0.721-1.03-0.792-1.434v-57.966c7.124,6.238,13.894,12.785,20.272,19.613v35.791c0,5.413,4.141,9.653,9.427,9.653
			h0.001c1.153,0,2.306-0.204,3.427-0.605l11.487-4.118l8.27,31.864l-7.889-4.967c-3.506-2.208-8.137-1.155-10.343,2.351
			c-2.207,3.505-1.155,8.136,2.351,10.343l21.38,13.462l3.074,11.842c-3.159,5.211-4.98,11.318-4.98,17.843
			C221.477,493.873,221.586,495.448,221.799,497z M303.93,339.906l-34.031,12.198c-0.45,0.162-0.888,0.354-1.311,0.573h-25.174
			c-0.423-0.219-0.86-0.411-1.31-0.572l-34.032-12.199v-3.726c4.705,2.596,10.407,4.319,15.027,4.319h65.804
			c4.62,0,10.321-1.724,15.026-4.318v3.725H303.93z M269.197,367.677v14.646h-27.303v-14.646H269.197z M226.894,362.587v24.826
			l-26.621,9.543v-43.911L226.894,362.587z M274.95,497h-37.897c-0.382-1.531-0.574-3.108-0.574-4.721
			c0-10.765,8.758-19.523,19.523-19.523s19.522,8.758,19.522,19.523C275.523,493.892,275.332,495.47,274.95,497z M273.192,462.361
			c-5.066-2.922-10.934-4.605-17.191-4.605c-6.253,0-12.118,1.68-17.182,4.599l-15.026-57.896l18.31-6.564
			c0.45-0.161,0.887-0.353,1.31-0.572h25.174c0.423,0.219,0.86,0.411,1.31,0.572l18.316,6.566L273.192,462.361z M284.197,387.086
			v-24.173l27.532-9.869v43.911L284.197,387.086z M326.73,404.613v-39.336c6.383-6.573,13.154-12.881,20.271-18.88v60.777
			c-0.071,0.404-0.488,1.159-0.792,1.435l-52.081,32.792l8.264-31.856l11.483,4.116c1.121,0.401,2.273,0.605,3.427,0.605
			C322.589,414.266,326.73,410.026,326.73,404.613z M345.534,276.135l-46.331,45.17c-2.05,1.999-7.441,4.194-10.3,4.194h-65.804
			c-2.859,0-8.25-2.195-10.299-4.193l-46.333-45.171c-1.995-1.944-4.185-7.144-4.185-9.935V141.804
			c0-12.94,4.885-23.987,14.126-31.946c9.12-7.854,21.935-12.179,36.085-12.179c12.667,0,25.761,5.984,35.918,16.412
			c1.981,2.038,4.747,3.206,7.589,3.206c2.839,0,5.604-1.167,7.585-3.201c10.163-10.433,23.256-16.417,35.923-16.417
			c14.148,0,26.963,4.325,36.085,12.179c9.241,7.958,14.125,19.005,14.125,31.946v124.395h0.002
			C349.719,268.99,347.529,274.19,345.534,276.135z M345.382,98.492c-11.842-10.197-28.133-15.813-45.872-15.813
			c-15.365,0-31.003,6.474-43.508,17.891c-12.506-11.418-28.143-17.891-43.508-17.891c-17.74,0-34.031,5.616-45.873,15.813
			c-12.651,10.895-19.338,25.872-19.338,43.312v20.414c-1.22-0.574-2.412-1.179-3.586-1.808V81.442
			c0-36.636,29.806-66.442,66.442-66.442c17.198,0,33.517,6.563,45.952,18.481c2.032,1.947,4.983,2.594,7.642,1.673
			c8.226-2.846,16.806-4.289,25.503-4.289c43,0,77.983,34.983,77.983,77.984v52.127c-0.825,0.424-1.653,0.843-2.499,1.241v-20.414
			C364.719,124.363,358.033,109.386,345.382,98.492z M364.721,244.785V213.5h7.168c4.142,0,7.5-3.358,7.5-7.5
			c0-4.142-3.358-7.5-7.5-7.5h-7.169v-19.985c5.277-2.032,10.296-4.463,14.95-7.295c4.196,8.408,6.406,17.783,6.406,27.243
			C386.076,216.978,377.781,233.585,364.721,244.785z"/>
	</g>
</g>
<g>
	<g>
		<path d="M261.3,405.7c-1.39-1.4-3.33-2.2-5.3-2.2c-1.98,0-3.91,0.8-5.3,2.2c-1.4,1.39-2.2,3.33-2.2,5.3c0,1.97,0.8,3.91,2.2,5.3
			c1.39,1.4,3.32,2.2,5.3,2.2c1.97,0,3.91-0.8,5.3-2.2c1.4-1.39,2.2-3.33,2.2-5.3C263.5,409.03,262.701,407.09,261.3,405.7z"/>
	</g>
</g>
<g>
	<g>
		<path d="M261.3,438.7c-1.39-1.4-3.33-2.2-5.3-2.2c-1.98,0-3.91,0.8-5.3,2.2c-1.4,1.39-2.2,3.33-2.2,5.3c0,1.97,0.8,3.91,2.2,5.3
			c1.39,1.4,3.32,2.2,5.3,2.2c1.97,0,3.91-0.8,5.3-2.2c1.4-1.39,2.2-3.33,2.2-5.3C263.5,442.03,262.701,440.09,261.3,438.7z"/>
	</g>
</g>
<g>
	<g>
		<path d="M304.648,274.175c-1.351-2.278-3.803-3.675-6.452-3.675h-84.393c-2.648,0-5.101,1.397-6.451,3.675
			c-1.35,2.278-1.4,5.1-0.129,7.423l14.181,25.934c1.315,2.406,3.839,3.902,6.581,3.902c2.742,0,5.266-1.497,6.581-3.902
			L246.61,285.5h18.779l12.046,22.032c1.315,2.406,3.839,3.902,6.581,3.902s5.265-1.496,6.581-3.902l14.18-25.934
			C306.048,279.274,305.998,276.452,304.648,274.175z M227.984,288.3l-1.531-2.8h3.063L227.984,288.3z M284.018,288.3l-1.531-2.8
			h3.063L284.018,288.3z"/>
	</g>
</g>
<g>
	<g>
		<path d="M342.401,154.676c-8.575-10.188-21.119-16.031-34.417-16.031c-20.084,0-37.891,13.501-43.303,32.833
			c-1.117,3.989,1.211,8.128,5.2,9.244c0.676,0.189,1.357,0.28,2.026,0.28c3.279,0,6.291-2.167,7.218-5.48
			c3.606-12.881,15.474-21.877,28.86-21.877c8.861,0,17.223,3.896,22.941,10.69c2.667,3.169,7.399,3.577,10.567,0.908
			C344.662,162.576,345.069,157.845,342.401,154.676z"/>
	</g>
</g>
<g>
	<g>
		<path d="M204.023,167.1c-11.567,0-20.977,9.411-20.977,20.977c0,11.566,9.411,20.977,20.977,20.977
			c11.567,0,20.977-9.41,20.977-20.977C225,176.511,215.591,167.1,204.023,167.1z M204.023,194.054
			c-3.296,0-5.977-2.681-5.977-5.977c0-3.296,2.682-5.977,5.977-5.977s5.977,2.681,5.977,5.977
			C210,191.373,207.32,194.054,204.023,194.054z"/>
	</g>
</g>
<g>
	<g>
		<path d="M306.023,167.1c-11.566,0-20.977,9.411-20.977,20.977c0,11.566,9.41,20.977,20.977,20.977
			c11.567,0,20.978-9.41,20.978-20.977C327,176.511,317.589,167.1,306.023,167.1z M306.023,194.054
			c-3.295,0-5.977-2.681-5.977-5.977c0-3.296,2.681-5.977,5.977-5.977c3.296,0,5.978,2.681,5.978,5.977
			C312,191.373,309.318,194.054,306.023,194.054z"/>
	</g>
</g>
<g>
	<g>
		<path d="M263.336,242.564h-15.739V179c0-26.211-22.455-40.355-43.582-40.355c-13.297,0-25.842,5.843-34.417,16.031
			c-2.667,3.169-2.26,7.9,0.909,10.567c3.169,2.668,7.901,2.261,10.567-0.908c5.718-6.793,14.08-10.69,22.941-10.69
			c22.608,0,28.582,16.585,28.582,25.355v66.064c0,6.893,5.607,12.5,12.5,12.5h18.239c4.142,0,7.5-3.358,7.5-7.5
			C270.836,245.922,267.479,242.564,263.336,242.564z"/>
	</g>
</g>
<g>
	<g>
		<path d="M363.914,460.779h-47c-4.142,0-7.5,3.358-7.5,7.5c0,4.142,3.358,7.5,7.5,7.5h47c4.142,0,7.5-3.358,7.5-7.5
			C371.414,464.137,368.055,460.779,363.914,460.779z"/>
	</g>
</g>
<g>
</g>
<g>
</g>
<g>
</g>
<g>
</g>
<g>
</g>
<g>
</g>
<g>
</g>
<g>
</g>
<g>
</g>
<g>
</g>
<g>
</g>
<g>
</g>
<g>
</g>
<g>
</g>
<g>
</g>
</svg>
