<svg id="Capa_1" enable-background="new 0 0 513.201 513.201" height="512" viewBox="0 0 513.201 513.201" width="512" xmlns="http://www.w3.org/2000/svg"><g><g><path d="m493.373 145.37c-46.373 0-84.1-37.728-84.1-84.101 0-15.396 4.195-30.45 12.133-43.536 2.378-3.919 2.212-8.874-.421-12.622-2.617-3.728-7.19-5.551-11.652-4.653-18.465 3.723-35.43 12.634-49.061 25.77-2.982 2.874-3.07 7.622-.196 10.604 2.874 2.983 7.623 3.07 10.604.196 9.658-9.307 21.283-16.113 33.971-19.945-6.81 13.661-10.378 28.782-10.378 44.187 0 51.946 40.17 94.686 91.08 98.779-15.192 13.677-35.062 21.485-55.619 21.655-45.708.334-83.714-36.44-84.784-82.067-.301-12.792 2.191-25.125 7.408-36.657 1.706-3.774.031-8.218-3.743-9.925-3.775-1.705-8.218-.03-9.925 3.743-6.15 13.6-9.09 28.131-8.736 43.19 1.256 53.503 45.623 96.724 99.088 96.719.269 0 .547-.001.815-.003 27.333-.226 53.628-11.907 72.143-32.049 3.082-3.354 3.891-8.213 2.058-12.381-1.846-4.199-5.995-6.88-10.685-6.904z"/><path d="m511.996 30.42c-1.329-4.202-4.862-7.228-9.216-7.894l-15.055-2.31-6.632-13.709c-1.919-3.968-5.849-6.454-10.257-6.489-.031 0-.063 0-.094 0-4.369 0-8.297 2.418-10.264 6.326l-6.847 13.604-15.09 2.071c-4.366.6-7.944 3.569-9.339 7.75-1.396 4.181-.315 8.704 2.815 11.805l10.821 10.717-2.692 14.99c-.779 4.338.939 8.659 4.484 11.277s8.182 2.991 12.098.97l13.536-6.98 13.424 7.193c1.717.92 3.582 1.375 5.438 1.375 2.343-.001 4.672-.726 6.673-2.155 3.586-2.563 5.372-6.856 4.66-11.205l-2.455-15.031 10.988-10.543c3.183-3.052 4.334-7.559 3.004-11.762zm-25.707 12.759c-2.731 2.622-3.996 6.417-3.384 10.146l1.607 9.839-8.788-4.709c-1.695-.908-3.562-1.362-5.429-1.362-1.807 0-3.614.426-5.268 1.278l-8.861 4.57 1.763-9.813c.669-3.726-.537-7.539-3.226-10.199l-7.084-7.016 9.878-1.355c3.747-.515 7-2.839 8.703-6.22l4.481-8.904 4.342 8.973c1.647 3.407 4.864 5.783 8.604 6.356l9.854 1.512z"/><path d="m110.094 345.023c-1.504-4.755-5.5-8.179-10.431-8.936l-22.233-3.41-9.795-20.247c-2.172-4.489-6.619-7.303-11.605-7.342-.036-.001-.071-.001-.106-.001-4.945 0-9.389 2.735-11.616 7.159l-10.113 20.091-22.284 3.059c-4.941.679-8.991 4.04-10.569 8.771s-.356 9.85 3.187 13.357l15.982 15.827-3.977 22.14c-.882 4.909 1.063 9.799 5.076 12.762 4.012 2.964 9.26 3.383 13.688 1.098l19.99-10.31 19.828 10.624c1.942 1.041 4.053 1.556 6.152 1.556 2.652 0 5.288-.821 7.553-2.439 4.058-2.899 6.078-7.759 5.274-12.68l-3.628-22.199 16.229-15.572c3.599-3.453 4.901-8.552 3.398-13.308zm-30.771 18.785c-3.089 2.967-4.52 7.26-3.829 11.48l3.146 19.249-17.188-9.211c-1.919-1.028-4.03-1.543-6.145-1.543-2.044 0-4.091.481-5.963 1.446l-17.334 8.939 3.448-19.196c.757-4.215-.607-8.529-3.649-11.541l-13.859-13.723 19.324-2.652c4.242-.583 7.924-3.215 9.847-7.038l8.769-17.42 8.493 17.555c1.864 3.856 5.506 6.546 9.738 7.193l19.277 2.957z"/><path d="m332.04 196.479h-4.608v-21.141c0-23-8.376-45.594-23.585-63.621-8.6-10.193-19.232-18.749-31.14-25.247 2.441-7.699 2.492-16.054 2.015-22.104-.446-5.68-3.992-10.472-8.872-12.779 1.274-7.754.813-15.782-1.66-23.33 0-.001 0-.001 0-.001-5.626-17.166-21.508-28.257-40.462-28.256-18.925 0-34.789 11.092-40.413 28.257-2.473 7.547-2.924 15.572-1.649 23.324-4.886 2.305-8.437 7.1-8.884 12.783-.477 6.051-.426 14.406 2.015 22.106-11.909 6.498-22.542 15.053-31.142 25.247-15.208 18.026-23.584 40.621-23.584 63.621v21.141h-4.607c-14.434 0-26.176 11.742-26.176 26.176 0 14.433 11.742 26.175 26.176 26.175h5.158c1.587 15.381 6.584 30.221 14.686 43.433 1.415 2.308 3.878 3.58 6.4 3.58 1.337 0 2.691-.357 3.914-1.107 3.531-2.165 4.638-6.783 2.473-10.314-8.51-13.876-13.012-29.862-13.022-46.233v-28.003c40.772-5.71 63.547-29.775 87.572-55.19.368-.39.737-.78 1.106-1.17.369.39.738.78 1.105 1.169 24.026 25.416 46.802 49.481 87.575 55.191v27.946c0 48.898-39.782 88.68-88.681 88.68-20.399 0-39.572-6.731-55.446-19.467-3.232-2.593-7.953-2.074-10.543 1.157-2.593 3.231-2.074 7.951 1.156 10.543 10.788 8.655 23.224 14.996 36.428 18.761v7.274c-50.378 10.667-88.301 55.473-88.301 108.98v51.643c0 4.143 3.357 7.5 7.5 7.5h218.412c4.143 0 7.5-3.357 7.5-7.5v-51.643c0-53.508-37.923-98.317-88.301-108.984v-7.226c40.091-11.437 70.342-46.449 74.726-89.02h5.158c14.433 0 26.175-11.742 26.175-26.176.001-14.433-11.741-26.175-26.174-26.175zm-211.969 37.35h-4.607c-6.162 0-11.176-5.014-11.176-11.176s5.014-11.175 11.176-11.175h4.607zm90.275 107.098c4.431.581 8.909.882 13.405.882 4.542 0 9.015-.301 13.405-.87v18.91c0 7.393-6.014 13.406-13.405 13.406s-13.405-6.014-13.405-13.406zm115.111 113.132v44.143h-33.392v-45.264c0-4.143-3.357-7.5-7.5-7.5s-7.5 3.357-7.5 7.5v45.264h-106.627v-45.264c0-4.143-3.357-7.5-7.5-7.5s-7.5 3.357-7.5 7.5v45.264h-33.393v-44.143c0-45.2 31.274-83.219 73.316-93.591.331 15.378 12.934 27.789 28.39 27.789 15.453 0 28.053-12.405 28.389-27.779 42.041 10.373 73.317 48.382 73.317 93.581zm-127.888-421.131c4.331-13.218 16.353-17.928 26.16-17.928 9.379-.001 21.87 4.694 26.207 17.927 1.8 5.492 2.024 11.444.922 17.181h-54.209c-1.101-5.737-.88-11.689.92-17.18zm-9.833 32.612c.02-.246.204-.433.429-.433h71.175c.229 0 .409.182.43.433v.002c.596 7.568-.196 14.214-2.23 18.713-.084.187-.25.308-.422.308h-66.729c-.175 0-.336-.118-.422-.308-2.035-4.499-2.827-11.145-2.231-18.715zm124.696 129.487c-34.322-5.538-54.067-26.424-76.674-50.338-1.509-1.596-3.026-3.201-4.56-4.814-1.93-2.029-4.644-3.193-7.447-3.193s-5.518 1.164-7.447 3.194c-1.533 1.612-3.052 3.218-4.56 4.813-22.606 23.914-42.352 44.8-76.673 50.338v-19.689c0-19.465 7.12-38.624 20.049-53.949 7.985-9.465 18.021-17.301 29.297-23.048 1.861.786 3.883 1.222 5.97 1.222h66.729c2.084 0 4.102-.434 5.96-1.217 11.279 5.746 21.32 13.577 29.306 23.043 12.93 15.325 20.05 34.485 20.05 53.949zm19.608 38.802h-4.608v-22.351h4.608c6.162 0 11.175 5.014 11.175 11.176s-5.013 11.175-11.175 11.175z"/><path d="m197.933 230.121c0-5.53-4.483-10.013-10.013-10.013s-10.013 4.483-10.013 10.013 4.483 10.013 10.013 10.013 10.013-4.483 10.013-10.013z"/><circle cx="259.829" cy="230.121" r="10.013"/><path d="m168.036 245.34c-2.717-3.127-7.453-3.462-10.58-.742-3.127 2.717-3.459 7.453-.742 10.58 6.937 7.983 16.977 12.563 27.545 12.563 10.063 0 19.775-4.217 26.649-11.569 2.829-3.025 2.669-7.771-.356-10.601-3.027-2.83-7.772-2.668-10.601.356-4.107 4.394-9.681 6.813-15.692 6.813-6.223 0-12.137-2.697-16.223-7.4z"/><path d="m247.982 245.34c-2.719-3.127-7.454-3.46-10.581-.743s-3.459 7.454-.743 10.581c6.937 7.983 16.976 12.563 27.545 12.563 10.063 0 19.775-4.217 26.649-11.569 2.829-3.025 2.669-7.771-.356-10.601-3.026-2.83-7.772-2.668-10.601.356-4.107 4.394-9.681 6.813-15.692 6.813-6.223 0-12.136-2.697-16.221-7.4z"/><path d="m208.378 287.623c-2.394 1.723-3.595 2.587-6.734 2.587-4.143 0-7.5 3.357-7.5 7.5s3.357 7.5 7.5 7.5c7.976 0 12.322-3.129 15.496-5.413 2.394-1.723 3.595-2.587 6.734-2.587s4.341.864 6.734 2.587c3.174 2.284 7.521 5.413 15.496 5.413 4.143 0 7.5-3.357 7.5-7.5s-3.357-7.5-7.5-7.5c-3.14 0-4.341-.864-6.734-2.587-3.174-2.284-7.521-5.413-15.496-5.413s-12.322 3.129-15.496 5.413z"/></g></g></svg>