<svg id="Layer_1" enable-background="new 0 0 512.002 512.002" height="512" viewBox="0 0 512.002 512.002" width="512" xmlns="http://www.w3.org/2000/svg"><g><path d="m38.647 508.184h304.752c8.644 0 15.675-7.032 15.675-15.675 0-10.494 0-465.283 0-469.4 0-10.637-8.654-19.291-19.291-19.291-7.761 0-292.425 0-301.136 0-21.309 0-38.647 17.336-38.647 38.647v427.072c0 21.31 17.337 38.647 38.647 38.647zm-23.647-69.195v-396.524c0-13.038 10.607-23.647 23.647-23.647h14.453v412.072h-14.453c-8.633 0-16.933 2.899-23.647 8.099zm258.094-362.725h-156.167c-10.752 0-19.5 8.748-19.5 19.5v80c0 10.752 8.748 19.5 19.5 19.5h58.334c4.143 0 7.5-3.358 7.5-7.5s-3.357-7.5-7.5-7.5h-58.334c-2.439 0-4.5-2.061-4.5-4.5v-80c0-2.439 2.061-4.5 4.5-4.5h156.167v89h-62.833c-4.143 0-7.5 3.358-7.5 7.5s3.357 7.5 7.5 7.5h62.833v235.626h-204.994v-412.072h204.994zm-258.094 393.273c0-13.039 10.608-23.647 23.647-23.647h234.446v47.294h-234.446c-13.039 0-23.647-10.608-23.647-23.647zm273.094 23.647v-47.294h14.333v47.294zm55.98-.675c0 .354-.321.675-.675.675h-25.973v-47.294h26.647v46.619zm-41.647-473.691v204.11c0 4.142 3.357 7.5 7.5 7.5s7.5-3.358 7.5-7.5v-204.11h22.356c2.366 0 4.291 1.925 4.291 4.291v407.781h-26.647v-172.963c0-4.142-3.357-7.5-7.5-7.5s-7.5 3.358-7.5 7.5v172.963h-14.333v-243.126c0-8.101 0-160.845 0-168.946z"/><path d="m504.502 85.503h-25.482v-16.687c0-8.373-5.662-15.434-13.353-17.598v-23.025c0-13.441-10.935-24.375-24.375-24.375h-15.503c-13.441 0-24.376 10.935-24.376 24.375v23.026c-7.691 2.164-13.353 9.224-13.353 17.598v16.692c-4.094.056-7.396 3.388-7.396 7.495s3.302 7.439 7.396 7.495v149.021c0 6.114 3.026 11.524 7.647 14.847v165.402c0 4.218 1.641 8.05 4.302 10.926l13.831 48.158c5.674 19.757 33.729 19.739 39.398 0l13.833-48.16c2.66-2.876 4.3-6.708 4.3-10.924v-165.402c4.622-3.324 7.647-8.733 7.647-14.847v-149.017h17.982v155.498c0 4.142 3.357 7.5 7.5 7.5s7.5-3.358 7.5-7.5v-162.998c.002-4.142-3.355-7.5-7.498-7.5zm-98.148-19.981h54.371c1.816 0 3.294 1.478 3.294 3.294v16.687h-60.959v-16.687c.001-1.816 1.478-3.294 3.294-3.294zm10.059-37.329c0-5.169 4.206-9.375 9.376-9.375h15.503c5.169 0 9.375 4.206 9.375 9.375v22.329h-34.254zm39.959 401.576c0 .656-.569 1.121-1.121 1.121h-43.422c-.549 0-1.121-.464-1.121-1.121v-161.955h45.664zm-17.551 54.944c-1.526 5.315-9.037 5.315-10.563 0l-11.15-38.823h32.864zm25.199-235.193c0 1.55-1.08 2.845-2.524 3.194-.06.014-.12.03-.181.041-.192.035-.388.06-.589.06h-54.371c-.202 0-.397-.025-.589-.06-.061-.011-.121-.026-.181-.041-1.444-.349-2.524-1.644-2.524-3.194v-149.017h60.959z"/></g></svg>