<?xml version="1.0"?>
<svg xmlns="http://www.w3.org/2000/svg" xmlns:xlink="http://www.w3.org/1999/xlink" xmlns:svgjs="http://svgjs.com/svgjs" version="1.1" width="512" height="512" x="0" y="0" viewBox="0 0 512 512" style="enable-background:new 0 0 512 512" xml:space="preserve" class=""><g><g xmlns="http://www.w3.org/2000/svg"><g><path d="m360 53.776h-48.184c-2.891 0-5.356-2.066-5.891-4.908-4.427-23.549-25.09-41.368-49.925-41.368s-45.498 17.819-49.925 41.368c-.534 2.842-2.999 4.908-5.891 4.908h-48.184c-33.137 0-60 26.863-60 60v261c0 33.137 26.863 60 60 60h8c3.314 0 6 2.686 6 6v57.724c0 3.314 2.686 6 6 6h18c3.314 0 6-2.686 6-6v-57.724c0-3.314 2.686-6 6-6h33c3.314 0 6 2.686 6 6v57.724c0 3.314 2.686 6 6 6h18c3.314 0 6-2.686 6-6v-57.724c0-3.314 2.686-6 6-6h33c3.314 0 6 2.686 6 6v57.724c0 3.314 2.686 6 6 6h18c3.314 0 6-2.686 6-6v-57.724c0-3.314 2.686-6 6-6h8c33.137 0 60-26.863 60-60v-261c0-33.137-26.863-60-60-60z" fill="#edebed" data-original="#edebed" style="" class=""/><g fill="#e2dfe3"><path d="m166 440.776v57.724c0 3.313 2.686 6 6 6h18c3.314 0 6-2.687 6-6v-57.724c0-3.314 2.686-6 6-6h-30c-3.314 0-6 2.686-6 6z" fill="#e2dfe3" data-original="#e2dfe3" style=""/><path d="m360 53.776h-30c33.137 0 60 26.863 60 60v261c0 33.137-26.863 60-60 60h-8c-3.314 0-6 2.686-6 6v57.724c0 3.313 2.686 6 6 6h18c3.314 0 6-2.687 6-6v-57.724c0-3.314 2.686-6 6-6h8c33.137 0 60-26.863 60-60v-261c0-33.137-26.863-60-60-60z" fill="#e2dfe3" data-original="#e2dfe3" style=""/><path d="m241 440.776v57.724c0 3.313 2.686 6 6 6h18c3.314 0 6-2.687 6-6v-57.724c0-3.314 2.686-6 6-6h-30c-3.314 0-6 2.686-6 6z" fill="#e2dfe3" data-original="#e2dfe3" style=""/></g><path d="m152 434.776h8c3.314 0 6 2.686 6 6v57.724c0 3.313 2.686 6 6 6h18c3.314 0 6-2.687 6-6v-57.724c0-3.314 2.686-6 6-6h33c3.314 0 6 2.686 6 6v57.724c0 3.313 2.686 6 6 6h18c3.314 0 6-2.687 6-6v-57.724c0-3.314 2.686-6 6-6h33c3.314 0 6 2.686 6 6v57.724c0 3.313 2.686 6 6 6h18c3.314 0 6-2.687 6-6v-57.724c0-3.314 2.686-6 6-6h8c33.137 0 60-26.863 60-60v-261c0-.504-.026-1.003-.038-1.504h-327.924c-.012.501-.038 1-.038 1.504v261c0 33.137 26.863 60 60 60z" fill="#e24452" data-original="#dd636e" style="" class=""/><g><path d="m352 434.776h8c33.137 0 60-26.863 60-60v-261c0-.504-.026-1.003-.038-1.504h-30c.012.501.038 1 .038 1.504v261c0 24.193-14.319 45.042-34.944 54.534-2.108.97-3.369 3.166-3.056 5.466z" fill="#dc3b46" data-original="#da4a54" style="" class=""/></g><circle cx="256" cy="58.314" fill="#ffffff" r="18.491" data-original="#ffffff" style="" class=""/><path d="m369 331.28h-226c-3.314 0-6-2.686-6-6v-162.009c0-3.314 2.686-6 6-6h226c3.314 0 6 2.686 6 6v162.009c0 3.314-2.686 6-6 6z" fill="#f7f6f7" data-original="#f7f6f7" style="" class=""/><path d="m369 157.271h-30c3.314 0 6 2.686 6 6v162.009c0 3.314-2.686 6-6 6h30c3.314 0 6-2.686 6-6v-162.009c0-3.313-2.686-6-6-6z" fill="#e2dfe3" data-original="#e2dfe3" style=""/><path d="m292.761 256.095c0 20.302-16.458 36.761-36.761 36.761s-36.761-16.458-36.761-36.761c0-16.206 23.424-46.842 32.876-58.543 1.998-2.474 5.771-2.474 7.77 0 9.451 11.701 32.876 42.337 32.876 58.543z" fill="#e24452" data-original="#dd636e" style="" class=""/><path d="m259.885 197.552c-1.999-2.474-5.771-2.474-7.77 0-1.769 2.19-4.028 5.044-6.531 8.342 9.648 13.668 19.832 30.626 19.832 41.312 0 19.217-14.748 34.98-33.542 36.612 6.457 5.624 14.89 9.037 24.125 9.037 20.302 0 36.761-16.458 36.761-36.761.001-16.205-23.424-46.841-32.875-58.542z" fill="#dc3b46" data-original="#da4a54" style="" class=""/></g><path d="m256 32.323c-14.332 0-25.991 11.66-25.991 25.992s11.659 25.991 25.991 25.991 25.991-11.66 25.991-25.991c0-14.333-11.659-25.992-25.991-25.992zm0 36.983c-6.061 0-10.991-4.931-10.991-10.991 0-6.061 4.931-10.992 10.991-10.992s10.991 4.931 10.991 10.992c0 6.06-4.93 10.991-10.991 10.991zm-60.176 261.974c0 4.142 3.357 7.5 7.5 7.5h165.676c7.444 0 13.5-6.056 13.5-13.5v-162.009c0-7.444-6.056-13.5-13.5-13.5h-226c-7.444 0-13.5 6.056-13.5 13.5v162.009c0 7.444 6.056 13.5 13.5 13.5h25.324c4.143 0 7.5-3.358 7.5-7.5s-3.357-7.5-7.5-7.5h-23.824v-159.009h223v159.009h-164.176c-4.142 0-7.5 3.358-7.5 7.5zm104.437-75.185c0-9.349-5.992-27.913-34.541-63.255-2.383-2.951-5.926-4.644-9.72-4.644s-7.337 1.692-9.719 4.643c-28.55 35.343-34.542 53.907-34.542 63.256 0 24.405 19.855 44.261 44.261 44.261s44.261-19.856 44.261-44.261zm-73.522 0c0-8.908 11.415-28.906 29.261-51.395 17.845 22.488 29.261 42.487 29.261 51.395 0 16.134-13.126 29.261-29.261 29.261s-29.261-13.127-29.261-29.261zm133.261-209.819h-46.943c-5.641-26.889-29.441-46.276-57.057-46.276s-51.416 19.386-57.057 46.276h-46.943c-37.315-.02-67.491 30.477-67.5 67.5v261c0 37.22 30.28 67.5 67.5 67.5h6.5v56.224c0 7.444 6.056 13.5 13.5 13.5h18c7.444 0 13.5-6.056 13.5-13.5v-56.224h30v56.224c0 7.444 6.056 13.5 13.5 13.5h18c7.444 0 13.5-6.056 13.5-13.5v-56.224h30v56.224c0 7.444 6.056 13.5 13.5 13.5h18c7.444 0 13.5-6.056 13.5-13.5v-56.224h6.5c37.22 0 67.5-30.28 67.5-67.5v-194.69c0-4.142-3.357-7.5-7.5-7.5s-7.5 3.358-7.5 7.5v194.69c0 28.949-23.552 52.5-52.5 52.5h-8c-7.444 0-13.5 6.056-13.5 13.5v56.224h-15v-56.224c0-7.444-6.056-13.5-13.5-13.5h-33c-7.444 0-13.5 6.056-13.5 13.5v56.224h-15v-56.224c0-7.444-6.056-13.5-13.5-13.5h-33c-7.444 0-13.5 6.056-13.5 13.5v56.224h-15v-56.224c0-7.444-6.056-13.5-13.5-13.5h-8c-28.948 0-52.5-23.551-52.5-52.5v-255.005h313v25.314c0 4.142 3.357 7.5 7.5 7.5s7.5-3.358 7.5-7.5v-31.31c-.018-37.033-30.141-67.5-67.5-67.499zm-259.711 58.495c4.284-24.671 25.834-43.495 51.711-43.495h48.184c6.483 0 12.061-4.636 13.262-11.022 3.84-20.428 21.737-35.254 42.554-35.254s38.714 14.826 42.555 35.253c1.201 6.387 6.778 11.023 13.262 11.023h48.183c25.877 0 47.427 18.824 51.711 43.496h-311.422z" fill="#000000" data-original="#000000" style="" class=""/></g></g></svg>
