<svg id="Capa_1" enable-background="new 0 0 512 512" height="512" viewBox="0 0 512 512" width="512" xmlns="http://www.w3.org/2000/svg"><g><path d="m266.313 94.116c-5.771-5.479-14.854-5.479-20.625 0-12.774 12.085-124.688 121.205-124.688 191.884 0 74.443 60.557 136 135 136s135-61.557 135-136c0-70.679-111.914-179.799-124.687-191.884z"/><path d="m256 512c26.294 0 52.236-3.999 77.139-11.88 7.896-2.49 12.275-10.928 9.771-18.823-2.49-7.881-10.854-12.275-18.823-9.771-21.974 6.944-44.869 10.474-68.087 10.474-124.072 0-226-101.928-226-226 0-46.805 15.573-92.249 41.644-129.535-.568 6.744 3.215 13.255 9.908 15.478 7.912 2.637 16.366-1.666 18.97-9.478l21.211-63.633c1.802-5.391.396-11.338-3.618-15.352-3.999-4.014-9.932-5.435-15.352-3.618l-63.648 21.212c-7.852 2.607-12.1 11.104-9.478 18.97 2.607 7.852 11.03 12.158 18.97 9.478l7.09-2.362c-35.191 44.509-55.697 100.678-55.697 158.84 0 140.61 115.39 256 256 256z"/><path d="m256 0c-26.338 0-52.295 3.999-77.153 11.88-7.896 2.505-12.261 10.928-9.756 18.838 2.49 7.896 10.884 12.29 18.838 9.756 21.914-6.944 44.809-10.474 68.071-10.474 124.072 0 226 101.928 226 226 0 46.794-15.573 92.232-41.642 129.518.56-6.736-3.223-13.24-9.91-15.461-7.925-2.651-16.362 1.626-18.97 9.478l-21.211 63.633c-1.802 5.391-.396 11.338 3.618 15.352 4.059 4.058 10.063 5.414 15.352 3.618l63.647-21.211c7.852-2.607 12.1-11.104 9.478-18.97-2.607-7.852-11.03-12.129-18.97-9.478l-7.103 2.366c35.201-44.51 55.711-100.676 55.711-158.845 0-140.61-115.39-256-256-256z"/></g></svg>