<svg viewBox="0 0 512 512">
<title>Poids</title>
<path d="M467,0H45C20.2,0,0,20.2,0,45v422c0,24.8,20.2,45,45,45h422c24.8,0,45-20.2,45-45V45C512,20.2,491.8,0,467,0z M471.4,457.1
	c0,7.9-6.4,14.3-14.3,14.3H54.9c-7.9,0-14.3-6.4-14.3-14.3V54.9c0-7.9,6.4-14.3,14.3-14.3h402.3c7.9,0,14.3,6.4,14.3,14.3V457.1z"/>
<path d="M429,139.5c-50.3-37.7-110.1-57.7-173-57.7s-122.7,19.9-173,57.7c-3.2,2.4-5.3,5.9-5.9,9.9c-0.6,3.9,0.5,7.9,2.9,11.1
	l79.2,105.3c2.9,3.9,7.4,6,12,6c3.1,0,6.3-1,9-3c22-16.5,48.3-25.3,75.8-25.3c27.6,0,53.8,8.7,75.8,25.3c6.6,5,16,3.6,21-3
	L432,160.5c2.4-3.2,3.4-7.2,2.9-11.1C434.3,145.4,432.2,141.8,429,139.5z M330.3,230.6c-18.5-11.2-37.1-18-58.6-20.1v-41.5
	c0-7.5-8.1-14.6-15.7-14.6c-7.6,0-15.7,7.1-15.7,14.6v41.5c-21.6,2-40.2,8.8-58.6,20.1l-56-74c38.7-25.5,83.5-39,130.3-39
	s91.6,13.4,130.3,39L330.3,230.6z"/>
</svg>
