<svg data-name="Capa 1" xmlns="http://www.w3.org/2000/svg" viewBox="0 0 512.48 514.09"><title>Règles</title><ellipse cx="256" cy="229.63" rx="56.49" ry="56.47"/><path d="M272.09,93.22a15,15,0,0,0-20.63,0C238.69,105.3,126.77,214.42,126.77,285.1c0,74.44,60.56,136,135,136s135-61.56,135-136C396.77,214.42,284.86,105.3,272.09,93.22Zm44.78,188.49C304,294.57,289.8,302,273,304v24h16.28A11,11,0,0,1,300,339.2,10.68,10.68,0,0,1,289.28,350H273v24.18c0,5.07-2.67,9.82-11,9.82-8.11,0-11-4.75-11-9.82V350H234.27c-5.06,0-10.27-3.56-10.27-10.8,0-6.87,5.21-11.2,10.27-11.2H251V304c-16.8-2-31.47-9.39-44.33-22.25a77.91,77.91,0,1,1,110.2,0Z" transform="translate(-5.77 2.99)"/><path d="M332.23,467.83c-22.24,4.05-37.72,8.34-60.94,8.34-124.07,0-226-101.92-226-226,0-46.8,15.57-92.25,41.64-129.53a14.79,14.79,0,0,0,9.91,15.48,15,15,0,0,0,19-9.48l18.81-59.73c1.81-5.39,5.15-14.7-1.18-20.74-6.67-5.51-19.48,1-24.9,2.79L44.89,70.17a15,15,0,0,0,9.49,28.45l7.09-2.36C26.28,140.77,5.77,196.94,5.77,255.1c0,140.61,115.39,256,256,256a255.28,255.28,0,0,0,77.14-11.88c11.41-3.9,12.53-12.56,10.75-20.34C347.88,471.43,341.11,466.32,332.23,467.83Z" transform="translate(-5.77 2.99)"/><path d="M469.64,409.48l-7.09,2.37c35.19-44.51,55.7-100.68,55.7-158.84,0-140.61-115.39-256-256-256A255,255,0,0,0,185.11,8.89c-11.41,3.89-12.53,12.56-10.75,20.34,1.78,7.44,8.55,12.55,17.43,11.05,22.24-4.05,37.72-8.35,60.94-8.35,124.07,0,226,101.93,226,226,0,46.81-15.57,92.25-41.64,129.54A14.78,14.78,0,0,0,427.18,372a15,15,0,0,0-19,9.48L389.4,441.19c-1.81,5.39-5.15,14.7,1.18,20.74,6.67,5.52,19.48-1,24.9-2.79l63.65-21.21a15,15,0,0,0-9.49-28.45Z" transform="translate(-5.77 2.99)"/></svg>