<svg viewBox="0 0 512 512">
<title>Don du sang</title>
<g>
	<path d="M506.8,313c-5.7-11.4-15.6-19.9-27.8-23.9c-12.2-4-25.2-3.1-36.6,2.7l-84.8,42.8c-6.9-18.1-24.4-31-44.8-31h-57.1
		c-22.8-21.6-54.8-33.9-88.9-33.9c-21.5,0-45.3,8.7-70.6,18.6v-20H0v235.4h96.1v-46.9l200.5,37.7l189.7-117.4
		c11.1-5.8,19.4-15.6,23.3-27.6C513.6,337.3,512.6,324.3,506.8,313L506.8,313z M63.9,462.7H32.3V309.1h31.6V462.7z M469.2,350.3
		L290.7,453.7L96.1,421.2V323c1.6-0.5,3.1-1.1,4.6-1.6c25.9-9,48.3-16.8,65.9-16.8c28.3,0,54.4,9.4,71.8,25.9l4.4,4.2h69.9
		c9.9,0,17.9,7.2,17.9,16c0,8.9-8,16.1-17.9,16.1H183.1v30.9h129.7c20.6,0,38.3-11.7,45-28l95.2-47.8c7-3.3,17.3-2.5,22.7,5.7
		C481,336.6,476.5,346.2,469.2,350.3z"/>
	<path d="M231.7,199.6c8.2,2.4,16.7,3.6,25.3,3.6c3.2,0,6.5-0.2,9.7-0.5c0.6,1.9,1.3,3.7,2.1,5.5c7.2,17.3,20.3,31.4,37.9,41
		c15.7,8.5,34.2,13,53.5,13c19.3,0,37.8-4.5,53.5-13c17.6-9.6,30.7-23.7,37.9-41c9.8-23.4,8.5-50.8-3.7-81.5
		c-13.1-33-39.1-69.2-77.1-107.6L360.2,8.3l-10.7,10.8c-16.2,16.3-30.2,32.3-41.9,47.7c-10.2-15.3-23.5-31.3-39.8-47.7L257.1,8.3
		l-10.7,10.8c-78.8,79.6-68.7,128.2-55.7,150C199.3,183.5,213.8,194.3,231.7,199.6L231.7,199.6z M360.2,64.2
		c25.1,26.8,42.4,51.7,51.3,74.1c7.9,19.8,9,36.7,3.3,50.4c-9.4,22.5-35.3,30.5-54.6,30.5c-19.3,0-45.2-8-54.6-30.5
		c-5.7-13.6-4.6-30.6,3.3-50.4C317.8,115.9,335.1,91,360.2,64.2z M223.7,118.2c5.6-16.2,17.5-34.3,35.6-54
		c11.8,12.8,21,25.1,27.5,36.5c-5.9,9.7-10.7,19.1-14.3,28.2c-5.6,14.1-8.5,27.3-8.7,39.7c-15.1,1.2-31.9-3.8-39.4-16.4
		C219.1,143.5,218.9,132.1,223.7,118.2L223.7,118.2z"/>
</g>
</svg>
