<svg viewBox="0 0 492 512"><title>Sommeil</title><path d="M432.19,337.68a151.94,151.94,0,0,1-84.74,25.66c-84.21,0-152.72-68.51-152.72-152.71A152.68,152.68,0,0,1,262.05,84l35.88-24.25-43.19-3.14c-5.56-.4-11.2-.61-16.74-.61A228,228,0,0,0,76.78,445.22a228.07,228.07,0,0,0,378-90.41l13.45-41.23ZM343.52,443.07c-29,16.6-54.58,22.52-97.19,22.52C137.16,465.59,52.56,393.18,52.56,284c0-100.46,58.07-166.26,149.33-191.15C174,126.63,153.3,167.71,153.3,213.74c0,100.75,73.61,181.87,174.22,187.26,33.18,1.78,54.2-4.62,74.07-11.85C384.3,411.39,368.41,428.26,343.52,443.07Z" transform="translate(-10)"/><polygon points="429.46 94.01 485.46 0 383 0 383 30 432.67 30 376.67 124.01 492 124.01 492 94.01 429.46 94.01"/><polygon points="343.74 114.26 251.09 114.26 251.09 144.26 290.95 144.26 247.74 216.8 342.76 216.8 342.76 186.8 300.53 186.8 343.74 114.26"/><polygon points="399.57 284.76 426.93 238.84 349.51 238.84 349.51 268.84 374.13 268.84 346.78 314.76 428.01 314.76 428.01 284.76 399.57 284.76"/></svg>