<?xml version="1.0"?>
<svg xmlns="http://www.w3.org/2000/svg" xmlns:xlink="http://www.w3.org/1999/xlink" xmlns:svgjs="http://svgjs.com/svgjs" version="1.1" width="512" height="512" x="0" y="0" viewBox="0 0 512 512" style="enable-background:new 0 0 512 512" xml:space="preserve" class=""><g><linearGradient xmlns="http://www.w3.org/2000/svg" id="linear0" gradientUnits="userSpaceOnUse" x1="74.9807" x2="437.0193" y1="74.9807" y2="437.0193"><stop stop-opacity="1" stop-color="#00add2" offset="0"/><stop stop-opacity="1" stop-color="#697ce9" offset="0"/><stop stop-opacity="1" stop-color="#404ea0" offset="1"/></linearGradient><linearGradient xmlns="http://www.w3.org/2000/svg" id="lg1"><stop stop-opacity="1" stop-color="#f1f1f1" offset="0"/><stop stop-opacity="1" stop-color="#f7f7f7" offset="1"/></linearGradient><linearGradient xmlns="http://www.w3.org/2000/svg" xmlns:xlink="http://www.w3.org/1999/xlink" id="linear1" gradientUnits="userSpaceOnUse" x1="124.3333" x2="386.3556" xlink:href="#lg1" y1="266.1367" y2="266.1367"><stop stop-opacity="1" stop-color="#bdbdbd" offset="0"/><stop stop-opacity="1" stop-color="#fffbfb" offset="1"/></linearGradient><linearGradient xmlns="http://www.w3.org/2000/svg" xmlns:xlink="http://www.w3.org/1999/xlink" id="linear2" gradientUnits="userSpaceOnUse" x1="124.2227" x2="386.2434" xlink:href="#lg1" y1="266.1367" y2="266.1367"/><linearGradient xmlns="http://www.w3.org/2000/svg" id="lg2"><stop offset="0" stop-color="#fff"/><stop offset="1" stop-color="#aaeffd"/></linearGradient><linearGradient xmlns="http://www.w3.org/2000/svg" xmlns:xlink="http://www.w3.org/1999/xlink" id="linear3" gradientUnits="userSpaceOnUse" x1="145.6666" x2="368.3831" xlink:href="#lg2" y1="286.4102" y2="286.4102"><stop stop-opacity="1" stop-color="#aaeffd" offset="0"/><stop stop-opacity="1" stop-color="#efefef" offset="1"/></linearGradient><linearGradient xmlns="http://www.w3.org/2000/svg" xmlns:xlink="http://www.w3.org/1999/xlink" id="linear4" gradientUnits="userSpaceOnUse" x1="145.6666" x2="368.3824" xlink:href="#lg2" y1="286.4102" y2="286.4102"/><linearGradient xmlns="http://www.w3.org/2000/svg" id="lg3"><stop offset="0" stop-color="#ff0037"/><stop offset="1" stop-color="#d5012f"/></linearGradient><linearGradient xmlns="http://www.w3.org/2000/svg" xmlns:xlink="http://www.w3.org/1999/xlink" id="linear5" gradientUnits="userSpaceOnUse" x1="164.3333" x2="347.0005" xlink:href="#lg3" y1="245.8633" y2="245.8633"/><linearGradient xmlns="http://www.w3.org/2000/svg" xmlns:xlink="http://www.w3.org/1999/xlink" id="linear6" gradientUnits="userSpaceOnUse" x1="164.3333" x2="347.0014" xlink:href="#lg3" y1="245.8633" y2="245.8633"/><linearGradient xmlns="http://www.w3.org/2000/svg" id="lg4"><stop offset="0" stop-color="#fff"/><stop offset="1" stop-color="#ffeebc"/></linearGradient><linearGradient xmlns="http://www.w3.org/2000/svg" xmlns:xlink="http://www.w3.org/1999/xlink" id="linear7" gradientUnits="userSpaceOnUse" x1="204.3333" x2="304.0838" xlink:href="#lg4" y1="306.6836" y2="306.6836"/><linearGradient xmlns="http://www.w3.org/2000/svg" xmlns:xlink="http://www.w3.org/1999/xlink" id="linear8" gradientUnits="userSpaceOnUse" x1="204.3333" x2="304.0843" xlink:href="#lg4" y1="306.6836" y2="306.6836"/><linearGradient xmlns="http://www.w3.org/2000/svg" id="lg5"><stop offset="0" stop-color="#5ce3ff"/><stop offset="1" stop-color="#00cffa"/></linearGradient><linearGradient xmlns="http://www.w3.org/2000/svg" xmlns:xlink="http://www.w3.org/1999/xlink" id="linear9" gradientUnits="userSpaceOnUse" x1="186.3334" x2="326.6901" xlink:href="#lg5" y1="103.2735" y2="103.2735"/><linearGradient xmlns="http://www.w3.org/2000/svg" xmlns:xlink="http://www.w3.org/1999/xlink" id="linear10" gradientUnits="userSpaceOnUse" x1="186.3331" x2="326.69" xlink:href="#lg5" y1="103.2735" y2="103.2735"/><path xmlns="http://www.w3.org/2000/svg" d="m512 256c0 141.386719-114.613281 256-256 256s-256-114.613281-256-256 114.613281-256 256-256 256 114.613281 256 256zm0 0" fill="url(#linear0)" data-original="url(#linear0)" style="" class=""/><path xmlns="http://www.w3.org/2000/svg" d="m326.957031 143.820312v-20.273437l-30.410156-20.273437-30.410156 20.273437v20.273437h-10.136719l-94.609375 142.589844 94.609375 142.589844h91.230469c22.359375 0 40.546875-18.1875 40.546875-40.546875v-244.632813zm0 0" fill="url(#linear1)" data-original="url(#linear1)" style="" class=""/><path xmlns="http://www.w3.org/2000/svg" d="m245.863281 143.820312v-20.273437l-30.410156-20.273437-30.410156 20.273437v20.273437h-60.820313v244.632813c0 22.359375 18.1875 40.546875 40.546875 40.546875h91.230469v-285.179688zm0 0" fill="url(#linear2)" data-original="url(#linear2)" style=""/><path xmlns="http://www.w3.org/2000/svg" d="m154.632812 184.367188 101.367188 224.359374h91.230469c11.179687 0 20.273437-9.09375 20.273437-20.273437v-224.359375h-20.273437zm0 0" fill="url(#linear3)" data-original="url(#linear3)" style=""/><path xmlns="http://www.w3.org/2000/svg" d="m144.496094 164.09375v224.359375c0 11.179687 9.09375 20.273437 20.273437 20.273437h91.230469v-224.359374l-91.230469-20.273438zm0 0" fill="url(#linear4)" data-original="url(#linear4)" style="" class=""/><path xmlns="http://www.w3.org/2000/svg" d="m306.683594 164.09375v-60.820312h-20.273438v60.820312h-30.410156l-40.546875 112.179688 40.546875 112.179687h91.230469v-224.359375zm0 0" fill="url(#linear5)" data-original="url(#linear5)" style="" class=""/><path xmlns="http://www.w3.org/2000/svg" d="m225.589844 164.09375v-60.820312h-20.273438v60.820312h-40.546875v224.359375h91.230469v-224.359375zm0 0" fill="url(#linear6)" data-original="url(#linear6)" style=""/><path xmlns="http://www.w3.org/2000/svg" d="m306.683594 265.460938h-50.683594l-33.789062 41.222656 33.789062 41.222656h50.683594zm0 0" fill="url(#linear7)" data-original="url(#linear7)" style=""/><path xmlns="http://www.w3.org/2000/svg" d="m205.316406 265.460938h50.683594v82.445312h-50.683594zm0 0" fill="url(#linear8)" data-original="url(#linear8)" style=""/><path xmlns="http://www.w3.org/2000/svg" d="m185.042969 83h60.820312v40.546875h-60.820312zm0 0" fill="url(#linear9)" data-original="url(#linear9)" style=""/><path xmlns="http://www.w3.org/2000/svg" d="m266.136719 83h60.820312v40.546875h-60.820312zm0 0" fill="url(#linear10)" data-original="url(#linear10)" style=""/></g></svg>
