<?xml version="1.0" encoding="iso-8859-1"?>
<!-- Generator: Adobe Illustrator 19.0.0, SVG Export Plug-In . SVG Version: 6.00 Build 0)  -->
<svg version="1.1" id="Capa_1" xmlns="http://www.w3.org/2000/svg" xmlns:xlink="http://www.w3.org/1999/xlink" x="0px" y="0px"
	 viewBox="0 0 469.333 469.333" style="enable-background:new 0 0 469.333 469.333;" xml:space="preserve">
<g>
	<g>
		<g>
			<path d="M234.56,128c23.573,0,42.667-19.093,42.667-42.667c0-8-2.24-15.573-6.08-21.973L234.56,0l-36.587,63.36
				c-3.84,6.4-6.08,13.973-6.08,21.973C191.893,108.907,210.987,128,234.56,128z"/>
			<path d="M362.56,192L362.56,192H255.893v-42.667h-42.667V192H106.56c-35.307,0-64,28.693-64,64v32.853
				c0,23.04,18.773,41.813,41.813,41.813c11.2,0,21.653-4.373,29.547-12.267l45.653-45.547l45.547,45.44
				c15.787,15.787,43.307,15.787,59.093,0l45.653-45.44l45.547,45.44c7.893,7.893,18.347,12.267,29.547,12.267
				c23.04,0,41.813-18.773,41.813-41.813V256C426.56,220.693,397.867,192,362.56,192z"/>
			<path d="M332.587,341.013L332.587,341.013l-22.933-22.933l-23.04,22.933c-27.84,27.84-76.48,27.84-104.32,0L159.36,318.08
				l-23.04,22.933c-13.76,13.973-32.213,21.653-51.947,21.653c-15.467,0-29.867-4.907-41.813-13.12V448
				c0,11.733,9.6,21.333,21.333,21.333h341.333c11.733,0,21.333-9.6,21.333-21.333v-98.453c-11.947,8.213-26.24,13.12-41.813,13.12
				C365.013,362.667,346.56,354.987,332.587,341.013z"/>
		</g>
	</g>
</g>
<g>
</g>
<g>
</g>
<g>
</g>
<g>
</g>
<g>
</g>
<g>
</g>
<g>
</g>
<g>
</g>
<g>
</g>
<g>
</g>
<g>
</g>
<g>
</g>
<g>
</g>
<g>
</g>
<g>
</g>
</svg>
